<?xml version="1.0" encoding="UTF-8" standalone="no"?>
<!DOCTYPE svg PUBLIC "-//W3C//DTD SVG 20010904//EN"
              "http://www.w3.org/TR/2001/REC-SVG-20010904/DTD/svg10.dtd">

<svg xmlns="http://www.w3.org/2000/svg"
     width="5.13in" height="3.25in"
     viewBox="0 0 513 325">
  <path id="Selection"
        fill="#01c6a8" stroke="none" stroke-width="1"
        d="M 134.00,0.42
           C 156.51,-2.32 172.06,4.41 186.54,22.00
             193.13,30.01 205.14,49.41 214.00,52.99
             216.86,54.15 219.97,54.00 223.00,54.00
             223.00,54.00 289.00,54.00 289.00,54.00
             302.25,53.98 305.66,48.06 313.35,38.00
             320.87,28.16 327.02,18.37 337.00,10.52
             347.91,1.93 356.52,-0.02 370.00,0.00
             397.33,0.04 429.29,12.94 447.91,33.00
             464.83,51.22 470.95,73.36 479.42,96.00
             490.09,124.52 500.03,156.15 506.00,186.00
             508.65,199.25 511.98,217.65 512.00,231.00
             512.00,231.00 512.00,253.00 512.00,253.00
             511.64,283.19 494.80,325.80 459.00,324.99
             430.19,324.33 402.27,292.51 384.09,273.00
             371.11,259.07 364.73,247.03 344.00,247.00
             344.00,247.00 169.00,247.00 169.00,247.00
             147.68,247.03 141.07,258.37 127.83,273.00
             116.21,285.85 95.57,306.26 81.00,315.19
             72.46,320.42 63.19,324.88 53.00,325.00
             48.13,325.05 43.69,324.94 39.00,323.40
             13.79,315.14 0.29,281.63 0.00,257.00
             0.00,257.00 0.00,232.00 0.00,232.00
             0.02,217.93 4.47,194.08 7.58,180.00
             13.86,151.53 22.36,123.31 32.58,96.00
             40.64,74.43 47.05,51.31 63.09,34.00
             83.08,12.43 105.76,4.69 134.00,0.42 Z
           M 312.00,230.00
           C 312.00,230.00 336.00,230.00 336.00,230.00
             352.10,230.00 363.56,229.56 377.00,240.47
             382.87,245.23 385.15,248.89 390.04,254.00
             404.06,268.66 417.69,284.26 434.00,296.49
             442.64,302.97 455.92,310.75 467.00,306.89
             473.24,304.72 479.20,298.27 482.96,293.00
             492.30,279.91 495.81,261.88 496.00,246.00
             496.56,197.96 477.28,139.92 460.68,95.00
             450.92,68.58 443.14,45.47 417.00,30.43
             404.16,23.04 377.79,14.85 363.00,17.32
             358.22,18.12 352.83,20.58 349.00,23.53
             326.70,40.68 321.86,70.95 291.00,71.00
             291.00,71.00 221.00,71.00 221.00,71.00
             190.51,70.95 186.10,42.55 164.00,24.33
             154.21,16.25 144.88,16.20 133.00,17.87
             115.55,20.32 96.37,27.07 83.09,38.92
             63.55,56.36 59.05,74.71 50.19,98.00
             33.29,142.43 15.45,199.33 16.00,247.00
             16.20,263.49 20.86,285.32 32.46,297.58
             38.30,303.75 44.04,308.52 53.00,307.90
             63.20,307.21 75.32,298.69 83.00,292.39
             96.44,281.35 107.98,268.53 119.96,256.00
             125.26,250.46 129.87,244.25 136.00,239.53
             149.22,229.34 161.50,230.00 177.00,230.00
             177.00,230.00 200.00,230.00 200.00,230.00
             200.00,221.44 198.31,209.75 204.22,203.04
             211.30,195.01 220.38,197.00 230.00,197.00
             230.00,197.00 292.00,197.00 292.00,197.00
             294.53,197.00 297.59,196.89 300.00,197.65
             314.51,202.20 312.00,218.25 312.00,230.00 Z
           M 107.00,119.00
           C 107.00,110.70 105.77,98.19 109.71,91.00
             118.22,75.48 141.11,74.73 151.20,89.00
             157.32,97.66 156.00,108.96 156.00,119.00
             164.69,119.00 175.18,117.72 183.00,121.82
             198.66,130.05 200.43,152.84 185.99,163.20
             177.46,169.31 165.95,168.00 156.00,168.00
             156.00,178.63 157.32,189.95 150.39,198.96
             140.22,212.19 118.03,210.66 109.90,196.00
             105.65,188.32 107.00,176.72 107.00,168.00
             96.26,168.00 84.07,169.57 75.09,162.39
             61.28,151.35 64.31,128.95 80.00,121.40
             87.10,117.99 98.97,119.00 107.00,119.00 Z
           M 378.00,89.53
           C 384.95,88.39 391.43,89.10 396.67,94.33
             407.47,105.08 401.75,124.09 387.00,127.47
             374.65,130.30 362.25,119.70 363.22,107.00
             363.90,98.11 369.79,92.09 378.00,89.53 Z
           M 129.09,96.45
           C 123.47,98.96 124.01,102.53 124.00,108.00
             123.98,116.37 126.52,131.57 117.00,135.26
             114.75,136.13 111.42,136.00 109.00,136.00
             104.33,136.01 90.64,135.22 87.21,137.31
             81.68,140.69 81.64,150.81 95.00,151.00
             99.71,151.06 114.50,150.37 117.96,151.85
             120.34,152.88 121.99,154.67 122.99,157.04
             124.16,159.77 124.00,163.08 124.00,166.00
             124.01,170.20 123.33,183.88 125.02,186.89
             128.22,192.58 134.96,191.35 137.69,185.98
             139.83,181.75 138.90,167.46 139.00,162.00
             139.16,153.37 142.87,151.06 151.00,151.00
             151.00,151.00 167.00,151.00 167.00,151.00
             180.68,150.81 180.35,140.47 174.79,137.17
             167.23,132.69 143.94,141.42 139.60,129.98
             138.95,128.27 139.01,125.83 139.00,124.00
             138.94,115.25 142.50,95.09 129.09,96.45 Z
           M 343.00,124.31
           C 345.26,124.16 346.67,123.95 349.00,124.31
             374.46,125.69 372.50,164.76 346.00,162.90
             325.69,161.48 320.12,131.66 343.00,124.31 Z
           M 414.00,124.47
           C 420.36,123.58 425.75,124.12 430.82,128.53
             443.00,139.13 437.99,159.46 422.00,162.53
             402.20,166.33 389.87,141.96 405.18,128.68
             408.20,126.07 410.25,125.39 414.00,124.47 Z
           M 379.00,159.48
           C 386.02,158.48 392.35,159.79 397.24,165.32
             406.54,175.85 402.26,194.07 388.00,197.47
             367.47,202.36 355.16,177.95 369.33,164.52
             372.30,161.70 375.14,160.51 379.00,159.48 Z
           M 295.00,214.00
           C 295.00,214.00 217.00,214.00 217.00,214.00
             217.00,214.00 217.00,230.00 217.00,230.00
             217.00,230.00 295.00,230.00 295.00,230.00
             295.00,230.00 295.00,214.00 295.00,214.00 Z" />
</svg>
